HIERARCHY
ROOT hip
{
  OFFSET 0.00112043 5.09927 -9.65472
  CHANNELS 6 Xposition Yposition Zposition Zrotation Xrotation Yrotation
  JOINT abdomen
  {
    OFFSET 0 -1.186 -1.5018
    CHANNELS 3 Zrotation Xrotation Yrotation
    JOINT abdomen2
    {
      OFFSET 0 9.964 0.2134
      CHANNELS 3 Zrotation Xrotation Yrotation
      JOINT chest
      {
        OFFSET 0 13.134 -3.2573
        CHANNELS 3 Zrotation Xrotation Yrotation
        JOINT neck
        {
          OFFSET 0 20.686 -1.6905
          CHANNELS 3 Zrotation Xrotation Yrotation
          JOINT head
          {
            OFFSET 0 7.238 -0.1237
            CHANNELS 3 Zrotation Xrotation Yrotation
            End Site
            {
              OFFSET 0 0 0
            }
          }
        }
        JOINT lCollar
        {
          OFFSET 1.7069 20.075 5.0056
          CHANNELS 3 Zrotation Xrotation Yrotation
          JOINT lShldr
          {
            OFFSET 13.6458 -0.047 -4.849
            CHANNELS 3 Zrotation Xrotation Yrotation
            JOINT lForeArm
            {
              OFFSET 28.3255 -0.9759 2.2888
              CHANNELS 3 Zrotation Xrotation Yrotation
              JOINT lHand
              {
                OFFSET 22.1583 -0.53 10.8316
                CHANNELS 3 Zrotation Xrotation Yrotation
                JOINT lThumb1
                {
                  OFFSET 0.786 0.112 2.5817
                  CHANNELS 3 Zrotation Xrotation Yrotation
                  JOINT lThumb2
                  {
                    OFFSET 0.3601 -0.878 4.2331
                    CHANNELS 3 Zrotation Xrotation Yrotation
                    JOINT lThumb2_End
                    {
                      OFFSET 1.8127 -1.216 2.2227
                      CHANNELS 3 Zrotation Xrotation Yrotation
                      End Site
                      {
                        OFFSET 0.0181 -0.0122 0.0222
                      }
                    }
                  }
                }
                JOINT lCarpal1
                {
                  OFFSET 0.9571 1.114 1.7695
                  CHANNELS 3 Zrotation Xrotation Yrotation
                  JOINT lIndex1
                  {
                    OFFSET 4.1246 0.487 4.1451
                    CHANNELS 3 Zrotation Xrotation Yrotation
                    JOINT lIndex2
                    {
                      OFFSET 3.4052 -1.454 2.7682
                      CHANNELS 3 Zrotation Xrotation Yrotation
                      JOINT lIndex2_End
                      {
                        OFFSET 1.4531 -1.795 1.2713
                        CHANNELS 3 Zrotation Xrotation Yrotation
                        End Site
                        {
                          OFFSET 0.0145 -0.0179 0.0127
                        }
                      }
                    }
                  }
                  JOINT lMid1
                  {
                    OFFSET 5.6954 0.21 2.1184
                    CHANNELS 3 Zrotation Xrotation Yrotation
                    JOINT lMid2
                    {
                      OFFSET 3.9766 -1.54 2.3863
                      CHANNELS 3 Zrotation Xrotation Yrotation
                      JOINT lMid2_End
                      {
                        OFFSET 1.4042 -1.926 1.125
                        CHANNELS 3 Zrotation Xrotation Yrotation
                        End Site
                        {
                          OFFSET 0.014 -0.0193 0.0113
                        }
                      }
                    }
                  }
                }
                JOINT lCarpal2
                {
                  OFFSET 2.0956 0.66 -0.3894
                  CHANNELS 3 Zrotation Xrotation Yrotation
                  JOINT lRing1
                  {
                    OFFSET 5.0395 -0.09 2.4971
                    CHANNELS 3 Zrotation Xrotation Yrotation
                    JOINT lRing2
                    {
                      OFFSET 3.7921 -1.552 1.4806
                      CHANNELS 3 Zrotation Xrotation Yrotation
                      JOINT lRing2_End
                      {
                        OFFSET 1.4655 -1.808 0.9609
                        CHANNELS 3 Zrotation Xrotation Yrotation
                        End Site
                        {
                          OFFSET 0.0147 -0.0181 0.0096
                        }
                      }
                    }
                  }
                  JOINT lPinky1
                  {
                    OFFSET 4.9141 -1.269 0.3591
                    CHANNELS 3 Zrotation Xrotation Yrotation
                    JOINT lPinky2
                    {
                      OFFSET 3.1477 -1.685 0.8462
                      CHANNELS 3 Zrotation Xrotation Yrotation
                      JOINT lPinky2_End
                      {
                        OFFSET 0.8055 -1.585 0.7955
                        CHANNELS 3 Zrotation Xrotation Yrotation
                        End Site
                        {
                          OFFSET 0.0081 -0.0158 0.008
                        }
                      }
                    }
                  }
                }
              }
            }
          }
        }
        JOINT rCollar
        {
          OFFSET -1.7069 20.075 5.0056
          CHANNELS 3 Zrotation Xrotation Yrotation
          JOINT rShldr
          {
            OFFSET -13.6458 -0.047 -4.849
            CHANNELS 3 Zrotation Xrotation Yrotation
            JOINT rForeArm
            {
              OFFSET -28.3255 -0.9759 2.2888
              CHANNELS 3 Zrotation Xrotation Yrotation
              JOINT rHand
              {
                OFFSET -22.1583 -0.53 10.8316
                CHANNELS 3 Zrotation Xrotation Yrotation
                JOINT rThumb1
                {
                  OFFSET -0.786 0.112 2.5817
                  CHANNELS 3 Zrotation Xrotation Yrotation
                  JOINT rThumb2
                  {
                    OFFSET -0.3601 -0.878 4.2331
                    CHANNELS 3 Zrotation Xrotation Yrotation
                    JOINT rThumb2_End
                    {
                      OFFSET -1.8127 -1.216 2.2227
                      CHANNELS 3 Zrotation Xrotation Yrotation
                      End Site
                      {
                        OFFSET -0.0181 -0.0122 0.0222
                      }
                    }
                  }
                }
                JOINT rCarpal1
                {
                  OFFSET -0.9571 1.114 1.7695
                  CHANNELS 3 Zrotation Xrotation Yrotation
                  JOINT rIndex1
                  {
                    OFFSET -4.1246 0.487 4.1451
                    CHANNELS 3 Zrotation Xrotation Yrotation
                    JOINT rIndex2
                    {
                      OFFSET -3.4052 -1.454 2.7682
                      CHANNELS 3 Zrotation Xrotation Yrotation
                      JOINT rIndex2_End
                      {
                        OFFSET -1.4531 -1.795 1.2713
                        CHANNELS 3 Zrotation Xrotation Yrotation
                        End Site
                        {
                          OFFSET -0.0145 -0.018 0.0127
                        }
                      }
                    }
                  }
                  JOINT rMid1
                  {
                    OFFSET -5.6954 0.21 2.1184
                    CHANNELS 3 Zrotation Xrotation Yrotation
                    JOINT rMid2
                    {
                      OFFSET -3.9766 -1.54 2.3863
                      CHANNELS 3 Zrotation Xrotation Yrotation
                      JOINT rMid2_End
                      {
                        OFFSET -1.4042 -1.926 1.125
                        CHANNELS 3 Zrotation Xrotation Yrotation
                        End Site
                        {
                          OFFSET -0.014 -0.0193 0.0113
                        }
                      }
                    }
                  }
                }
                JOINT rCarpal2
                {
                  OFFSET -2.0956 0.66 -0.3894
                  CHANNELS 3 Zrotation Xrotation Yrotation
                  JOINT rRing1
                  {
                    OFFSET -5.0395 -0.09 2.4971
                    CHANNELS 3 Zrotation Xrotation Yrotation
                    JOINT rRing2
                    {
                      OFFSET -3.7921 -1.552 1.4806
                      CHANNELS 3 Zrotation Xrotation Yrotation
                      JOINT rRing2_End
                      {
                        OFFSET -1.4655 -1.808 0.9609
                        CHANNELS 3 Zrotation Xrotation Yrotation
                        End Site
                        {
                          OFFSET -0.0147 -0.0181 0.0096
                        }
                      }
                    }
                  }
                  JOINT rPinky1
                  {
                    OFFSET -4.9141 -1.269 0.3592
                    CHANNELS 3 Zrotation Xrotation Yrotation
                    JOINT rPinky2
                    {
                      OFFSET -3.1477 -1.685 0.8462
                      CHANNELS 3 Zrotation Xrotation Yrotation
                      JOINT rPinky2_End
                      {
                        OFFSET -0.8055 -1.585 0.7955
                        CHANNELS 3 Zrotation Xrotation Yrotation
                        End Site
                        {
                          OFFSET -0.0081 -0.0158 0.008
                        }
                      }
                    }
                  }
                }
              }
            }
          }
        }
      }
    }
  }
  JOINT lThigh
  {
    OFFSET 8.367 -8.2066 0.5982
    CHANNELS 3 Zrotation Xrotation Yrotation
    JOINT lShin
    {
      OFFSET 2.1923 -43.463 -0.4932
      CHANNELS 3 Zrotation Xrotation Yrotation
      JOINT lFoot
      {
        OFFSET 0.7333 -45.8593 -2.6451
        CHANNELS 3 Zrotation Xrotation Yrotation
        End Site
        {
          OFFSET 2.6618 -4.2699 12.3931
        }
      }
    }
  }
  JOINT rThigh
  {
    OFFSET -8.367 -8.2066 0.5982
    CHANNELS 3 Zrotation Xrotation Yrotation
    JOINT rShin
    {
      OFFSET -2.1923 -43.463 -0.4931
      CHANNELS 3 Zrotation Xrotation Yrotation
      JOINT rFoot
      {
        OFFSET -0.7333 -45.8593 -2.6451
        CHANNELS 3 Zrotation Xrotation Yrotation
        End Site
        {
          OFFSET -2.6618 -4.2699 12.3931
        }
      }
    }
  }
}
MOTION
Frames:	4
Frame Time:	0.0333333
42.3218 35.8112 0.324362 0.215919 -51.9965 -179.545 -0.218644 12.1019 -0.0940635 -0.431413 24.204 -0.144644 -0.431412 24.204 -0.144644 10.1081 -8.45551 1.4999 1.42413e-007 -2.91645 9.8536e-007 5.86731 -25.7925 -30.5969 2.80737 -5.4756 -34.6172 4.1004 -11.9255 7.54627 55.6822 -27.6434 13.8456 -2.06736e-014 -2.46493e-014 9.54166e-015 -1.74931e-014 -1.82882e-014 -3.18055e-015 -1.90833e-014 -2.14687e-014 -3.18055e-015 5.29669e-031 -3.18055e-015 9.54166e-015 -1.90833e-014 -1.82882e-014 -3.18055e-015 -1.90833e-014 -2.14687e-014 9.54166e-015 -1.90833e-014 -1.98785e-014 -3.18055e-015 -1.90833e-014 -1.82882e-014 -3.18055e-015 -1.90833e-014 -2.14687e-014 9.54166e-015 -1.90833e-014 -1.98785e-014 -3.18055e-015 5.29669e-031 -3.18055e-015 9.54166e-015 -1.90833e-014 -1.82882e-014 -3.18055e-015 -1.90833e-014 -2.14687e-014 9.54166e-015 -1.90833e-014 -1.98785e-014 -3.18055e-015 -1.90833e-014 -1.82882e-014 -3.18055e-015 -1.90833e-014 -2.14687e-014 9.54166e-015 -1.90833e-014 -1.98785e-014 -3.18055e-015 -3.02576 -25.1205 24.009 -2.73203 -5.29011 50.6386 -9.50408 -12.4941 -7.34855 -56.6971 -18.1765 -18.2814 -1.59028e-015 7.95139e-016 -3.18055e-015 -1.59028e-015 -1.59028e-015 3.18055e-015 -0 0 3.18055e-015 1.59028e-015 0 -3.18055e-015 -4.77083e-015 7.95139e-016 3.18055e-015 -4.77083e-015 7.95139e-016 -3.18055e-015 -3.18055e-015 0 -3.18055e-015 -4.77083e-015 7.95139e-016 3.18055e-015 -4.77083e-015 7.95139e-016 -3.18055e-015 -3.18055e-015 0 -3.18055e-015 1.59028e-015 0 -3.18055e-015 -4.77083e-015 7.95139e-016 3.18055e-015 -4.77083e-015 7.95139e-016 -3.18055e-015 -3.18055e-015 0 -3.18055e-015 -4.77083e-015 7.95139e-016 3.18055e-015 -4.77083e-015 7.95139e-016 -3.18055e-015 -3.18055e-015 0 -3.18055e-015 146.739 -18.8714 177.516 115.895 72.8484 -112.361 19.8461 6.74057 3.09907 -146.725 -18.8666 -177.523 -115.802 72.8399 112.264 -19.8619 6.74366 -3.10712 
42.3218 35.8135 0.242538 0.215919 -51.9965 -179.545 -0.218485 12.1119 -0.094272 -0.431042 24.2241 -0.145075 -0.431042 24.2241 -0.145075 10.1421 -9.65114 1.71619 -7.9117e-007 -3.77484 1.54475e-007 5.99207 -25.8242 -31.4739 2.7996 -5.47077 -33.678 3.87735 -11.8787 7.72804 55.8926 -27.8883 13.7915 1.59028e-015 2.38542e-015 -6.36111e-015 3.86355e-007 -7.54701e-007 -8.33106e-008 1.59028e-015 3.97569e-015 3.18055e-015 1.59028e-015 2.38542e-015 -6.36111e-015 -7.95139e-015 0 9.54166e-015 3.86355e-007 -7.54701e-007 -8.33105e-008 -3.18055e-015 2.38542e-015 6.36111e-015 -7.95139e-015 0 9.54166e-015 3.86355e-007 -7.54701e-007 -8.33105e-008 -3.18055e-015 2.38542e-015 6.36111e-015 1.59028e-015 2.38542e-015 -6.36111e-015 -7.95139e-015 0 9.54166e-015 3.86355e-007 -7.54701e-007 -8.33105e-008 -3.18055e-015 2.38542e-015 6.36111e-015 -7.95139e-015 0 9.54166e-015 3.86355e-007 -7.54701e-007 -8.33105e-008 -3.18055e-015 2.38542e-015 6.36111e-015 -3.12365 -25.0791 24.7031 -2.7245 -5.28224 50.0123 -9.44213 -12.4614 -7.66925 -56.8411 -18.4118 -18.2021 -1.59028e-015 -3.18055e-015 -0 -0 -2.38542e-015 -0 1.59028e-015 -7.95139e-016 9.54166e-015 -1.59028e-015 -1.59028e-015 -0 -6.36111e-015 -3.97569e-015 9.54166e-015 -1.59028e-015 -1.59028e-015 1.27222e-014 1.59028e-015 -2.38542e-015 6.36111e-015 -6.36111e-015 -3.97569e-015 9.54166e-015 -1.59028e-015 -1.59028e-015 1.27222e-014 1.59028e-015 -2.38542e-015 6.36111e-015 -1.59028e-015 -1.59028e-015 -0 -6.36111e-015 -3.97569e-015 9.54166e-015 -1.59028e-015 -1.59028e-015 1.27222e-014 1.59028e-015 -2.38542e-015 6.36111e-015 -6.36111e-015 -3.97569e-015 9.54166e-015 -1.59028e-015 -1.59028e-015 1.27222e-014 1.59028e-015 -2.38542e-015 6.36111e-015 146.739 -18.8741 177.518 115.904 72.8475 -112.375 19.829 6.5855 3.05974 -146.725 -18.8693 -177.525 -115.811 72.8391 112.276 -19.8453 6.5891 -3.06805 
42.3218 35.8158 0.16071 0.215919 -51.9965 -179.545 -0.218333 12.122 -0.0944793 -0.430685 24.2442 -0.145503 -0.430685 24.2442 -0.145503 10.181 -10.8481 1.93429 -2.63464e-007 -4.63375 -1.66916e-006 6.11626 -25.8576 -32.351 2.79176 -5.46607 -32.7391 3.6542 -11.8325 7.90997 56.1032 -28.1335 13.7383 -3.18055e-015 4.77083e-015 -3.18055e-015 -7.95139e-015 2.38542e-015 3.18055e-015 -1.59028e-015 1.59028e-015 9.54166e-015 8.82781e-032 1.59028e-015 -3.18055e-015 -6.36111e-015 -7.95139e-016 6.36111e-015 -3.18055e-015 3.97569e-015 -3.18055e-015 -7.95139e-015 3.18055e-015 9.54166e-015 -6.36111e-015 -7.95139e-016 6.36111e-015 -3.18055e-015 3.97569e-015 -3.18055e-015 -7.95139e-015 3.18055e-015 9.54166e-015 8.82781e-032 1.59028e-015 -3.18055e-015 -6.36111e-015 -7.95139e-016 6.36111e-015 -3.18055e-015 3.97569e-015 -3.18055e-015 -7.95139e-015 3.18055e-015 9.54166e-015 -6.36111e-015 -7.95139e-016 6.36111e-015 -3.18055e-015 3.97569e-015 -3.18055e-015 -7.95139e-015 3.18055e-015 9.54166e-015 -3.22205 -25.0389 25.3968 -2.71688 -5.27443 49.3862 -9.37996 -12.4289 -7.98991 -56.9849 -18.6474 -18.1235 2.64834e-031 -2.38542e-015 6.36111e-015 -3.18055e-015 -1.59028e-015 6.36111e-015 -1.59028e-015 -7.95139e-016 9.54166e-015 -8.82781e-032 -7.95139e-016 -6.36111e-015 -1.59028e-015 -4.77083e-015 9.54166e-015 -4.77083e-015 -2.38542e-015 1.27222e-014 -1.59028e-015 -2.38542e-015 6.36111e-015 -1.59028e-015 -4.77083e-015 9.54166e-015 -4.77083e-015 -2.38542e-015 1.27222e-014 -1.59028e-015 -2.38542e-015 6.36111e-015 -8.82781e-032 -7.95139e-016 -6.36111e-015 -1.59028e-015 -4.77083e-015 9.54166e-015 -4.77083e-015 -2.38542e-015 1.27222e-014 -1.59028e-015 -2.38542e-015 6.36111e-015 -1.59028e-015 -4.77083e-015 9.54166e-015 -4.77083e-015 -2.38542e-015 1.27222e-014 -1.59028e-015 -2.38542e-015 6.36111e-015 146.738 -18.8768 177.52 115.913 72.8466 -112.388 19.8119 6.43043 3.0204 -146.724 -18.872 -177.527 -115.82 72.8382 112.289 -19.8286 6.43453 -3.02897 
42.3218 35.8182 0.03299 0.215919 -51.9965 -179.545 -0.218176 12.132 -0.094687 -0.43032 24.2644 -0.145933 -0.43032 24.2644 -0.145933 10.2247 -12.0456 2.15437 3.03099e-006 -5.4931 -1.81553e-006 6.23988 -25.8927 -33.2278 2.78383 -5.46151 -31.8006 3.43098 -11.7871 8.09204 56.3139 -28.3788 13.6861 3.18055e-015 -1.59028e-015 -1.59028e-014 8.02057e-008 -4.74577e-007 -6.17702e-006 3.86349e-007 -7.54705e-007 -8.33097e-008 1.59028e-015 1.59028e-015 -3.18055e-015 1.59028e-015 7.95139e-016 -3.18055e-015 8.02057e-008 -4.74577e-007 -6.17702e-006 3.86349e-007 -7.54705e-007 -8.33097e-008 1.59028e-015 7.95139e-016 -3.18055e-015 8.02057e-008 -4.74577e-007 -6.17702e-006 3.86349e-007 -7.54705e-007 -8.33097e-008 1.59028e-015 1.59028e-015 -3.18055e-015 1.59028e-015 7.95139e-016 -3.18055e-015 8.02057e-008 -4.74577e-007 -6.17702e-006 3.86349e-007 -7.54705e-007 -8.33097e-008 1.59028e-015 7.95139e-016 -3.18055e-015 8.02057e-008 -4.74577e-007 -6.17702e-006 3.86349e-007 -7.54705e-007 -8.33097e-008 -3.32091 -24.9998 26.0903 -2.70916 -5.26672 48.7601 -9.31763 -12.3967 -8.31057 -57.1286 -18.8832 -18.0453 1.14751e-006 3.56585e-007 -5.33662e-009 3.18055e-015 3.97569e-015 -0 7.52048e-007 -3.95463e-007 5.62733e-008 -1.76556e-031 1.59028e-015 6.36111e-015 1.14751e-006 3.56585e-007 -5.33662e-009 3.18055e-015 2.38542e-015 3.18055e-015 7.52048e-007 -3.95463e-007 5.62733e-008 1.14751e-006 3.56585e-007 -5.33662e-009 3.18055e-015 2.38542e-015 3.18055e-015 7.52048e-007 -3.95463e-007 5.62733e-008 -1.76556e-031 1.59028e-015 6.36111e-015 1.14751e-006 3.56585e-007 -5.33662e-009 3.18055e-015 2.38542e-015 3.18055e-015 7.52048e-007 -3.95463e-007 5.62733e-008 1.14751e-006 3.56585e-007 -5.33662e-009 3.18055e-015 2.38542e-015 3.18055e-015 7.52048e-007 -3.95463e-007 5.62733e-008 146.738 -18.8796 177.521 115.922 72.8457 -112.401 19.7947 6.27535 2.98098 -146.724 -18.8748 -177.528 -115.829 72.8373 112.302 -19.8118 6.27999 -2.9898 
